<svg width="162" height="34" viewBox="0 0 162 34" fill="none" xmlns="http://www.w3.org/2000/svg">
<path d="M14.784 9.237V25H12.65V13.802C12.65 13.4867 12.6573 13.1603 12.672 12.823C12.6867 12.4783 12.7197 12.1153 12.771 11.734C12.6463 12.064 12.5143 12.372 12.375 12.658C12.2357 12.944 12.0927 13.1933 11.946 13.406L4.554 24.329C4.45133 24.4977 4.31933 24.6517 4.158 24.791C3.99667 24.9303 3.80967 25 3.597 25H2.013V9.237H4.147V20.446C4.147 20.7613 4.13967 21.0913 4.125 21.436C4.11033 21.7733 4.07733 22.1363 4.026 22.525C4.15067 22.1877 4.28267 21.876 4.422 21.59C4.56867 21.304 4.71167 21.051 4.851 20.831L12.243 9.908C12.3457 9.73933 12.4777 9.58533 12.639 9.446C12.8003 9.30667 12.9873 9.237 13.2 9.237H14.784ZM27.4639 13.857V25H25.4949V19.786H20.1489V25H18.1799V13.857H20.1489V18.301H25.4949V13.857H27.4639ZM37.8034 15.353H32.5454V25H30.5764V13.857H37.8034V15.353ZM45.5744 19.984C44.6724 20.0133 43.9024 20.0867 43.2644 20.204C42.6337 20.314 42.1167 20.4607 41.7134 20.644C41.3174 20.8273 41.0277 21.0437 40.8444 21.293C40.6684 21.5423 40.5804 21.821 40.5804 22.129C40.5804 22.4223 40.628 22.6753 40.7234 22.888C40.8187 23.1007 40.947 23.2767 41.1084 23.416C41.277 23.548 41.4714 23.647 41.6914 23.713C41.9187 23.7717 42.1607 23.801 42.4174 23.801C42.762 23.801 43.0774 23.768 43.3634 23.702C43.6494 23.6287 43.917 23.526 44.1664 23.394C44.423 23.262 44.665 23.1043 44.8924 22.921C45.127 22.7377 45.3544 22.5287 45.5744 22.294V19.984ZM39.2494 15.43C39.8654 14.836 40.529 14.3923 41.2404 14.099C41.9517 13.8057 42.74 13.659 43.6054 13.659C44.2287 13.659 44.7824 13.7617 45.2664 13.967C45.7504 14.1723 46.1574 14.4583 46.4874 14.825C46.8174 15.1917 47.0667 15.6353 47.2354 16.156C47.404 16.6767 47.4884 17.2487 47.4884 17.872V25H46.6194C46.4287 25 46.282 24.9707 46.1794 24.912C46.0767 24.846 45.996 24.7213 45.9374 24.538L45.7174 23.482C45.424 23.7533 45.138 23.9953 44.8594 24.208C44.5807 24.4133 44.2874 24.5893 43.9794 24.736C43.6714 24.8753 43.3414 24.9817 42.9894 25.055C42.6447 25.1357 42.2597 25.176 41.8344 25.176C41.4017 25.176 40.9947 25.1173 40.6134 25C40.232 24.8753 39.8984 24.692 39.6124 24.45C39.3337 24.208 39.11 23.9037 38.9414 23.537C38.78 23.163 38.6994 22.723 38.6994 22.217C38.6994 21.777 38.8204 21.3553 39.0624 20.952C39.3044 20.5413 39.6967 20.1783 40.2394 19.863C40.782 19.5477 41.4897 19.291 42.3624 19.093C43.235 18.8877 44.3057 18.7703 45.5744 18.741V17.872C45.5744 17.0067 45.3874 16.354 45.0134 15.914C44.6394 15.4667 44.093 15.243 43.3744 15.243C42.8904 15.243 42.4834 15.3053 42.1534 15.43C41.8307 15.5473 41.5484 15.683 41.3064 15.837C41.0717 15.9837 40.8664 16.1193 40.6904 16.244C40.5217 16.3613 40.353 16.42 40.1844 16.42C40.0524 16.42 39.9387 16.387 39.8434 16.321C39.748 16.2477 39.6674 16.1597 39.6014 16.057L39.2494 15.43ZM67.6278 21.744C67.7452 21.744 67.8478 21.7917 67.9358 21.887L68.7828 22.8C68.1375 23.548 67.3528 24.131 66.4288 24.549C65.5122 24.967 64.4012 25.176 63.0958 25.176C61.9665 25.176 60.9398 24.9817 60.0158 24.593C59.0918 24.197 58.3035 23.647 57.6508 22.943C56.9982 22.2317 56.4922 21.381 56.1328 20.391C55.7735 19.401 55.5938 18.312 55.5938 17.124C55.5938 15.936 55.7808 14.847 56.1548 13.857C56.5288 12.867 57.0532 12.0163 57.7278 11.305C58.4098 10.5937 59.2238 10.0437 60.1698 9.655C61.1158 9.259 62.1608 9.061 63.3048 9.061C64.4268 9.061 65.4168 9.24067 66.2748 9.6C67.1328 9.95933 67.8882 10.447 68.5408 11.063L67.8368 12.042C67.7928 12.1153 67.7342 12.1777 67.6608 12.229C67.5948 12.273 67.5032 12.295 67.3858 12.295C67.2538 12.295 67.0925 12.2253 66.9018 12.086C66.7112 11.9393 66.4618 11.778 66.1538 11.602C65.8458 11.426 65.4608 11.2683 64.9988 11.129C64.5368 10.9823 63.9685 10.909 63.2938 10.909C62.4798 10.909 61.7355 11.052 61.0608 11.338C60.3862 11.6167 59.8032 12.0237 59.3118 12.559C58.8278 13.0943 58.4502 13.747 58.1788 14.517C57.9075 15.287 57.7718 16.156 57.7718 17.124C57.7718 18.1067 57.9112 18.983 58.1898 19.753C58.4758 20.523 58.8608 21.1757 59.3448 21.711C59.8362 22.239 60.4118 22.6423 61.0718 22.921C61.7392 23.1997 62.4578 23.339 63.2278 23.339C63.6972 23.339 64.1188 23.3133 64.4928 23.262C64.8742 23.2033 65.2225 23.1153 65.5378 22.998C65.8605 22.8807 66.1575 22.734 66.4288 22.558C66.7075 22.3747 66.9825 22.1583 67.2538 21.909C67.3785 21.799 67.5032 21.744 67.6278 21.744ZM75.2773 13.681C76.0913 13.681 76.8246 13.8167 77.4773 14.088C78.13 14.3593 78.6873 14.7443 79.1493 15.243C79.6113 15.7417 79.9633 16.3467 80.2053 17.058C80.4546 17.762 80.5793 18.5503 80.5793 19.423C80.5793 20.303 80.4546 21.095 80.2053 21.799C79.9633 22.503 79.6113 23.1043 79.1493 23.603C78.6873 24.1017 78.13 24.4867 77.4773 24.758C76.8246 25.022 76.0913 25.154 75.2773 25.154C74.456 25.154 73.7153 25.022 73.0553 24.758C72.4026 24.4867 71.8453 24.1017 71.3833 23.603C70.9213 23.1043 70.5656 22.503 70.3163 21.799C70.0743 21.095 69.9533 20.303 69.9533 19.423C69.9533 18.5503 70.0743 17.762 70.3163 17.058C70.5656 16.3467 70.9213 15.7417 71.3833 15.243C71.8453 14.7443 72.4026 14.3593 73.0553 14.088C73.7153 13.8167 74.456 13.681 75.2773 13.681ZM75.2773 23.625C76.3773 23.625 77.1986 23.2583 77.7413 22.525C78.284 21.7843 78.5553 20.754 78.5553 19.434C78.5553 18.1067 78.284 17.0727 77.7413 16.332C77.1986 15.5913 76.3773 15.221 75.2773 15.221C74.72 15.221 74.2323 15.3163 73.8143 15.507C73.4036 15.6977 73.059 15.9727 72.7803 16.332C72.509 16.6913 72.3036 17.135 72.1643 17.663C72.0323 18.1837 71.9663 18.774 71.9663 19.434C71.9663 20.754 72.2376 21.7843 72.7803 22.525C73.3303 23.2583 74.1626 23.625 75.2773 23.625ZM92.5085 25H90.5505V15.397H87.0305C86.9425 16.8123 86.8105 18.037 86.6345 19.071C86.4585 20.0977 86.2458 20.974 85.9965 21.7C85.7545 22.4187 85.4795 23.0053 85.1715 23.46C84.8708 23.9073 84.5518 24.2557 84.2145 24.505C83.8845 24.7543 83.5398 24.923 83.1805 25.011C82.8285 25.099 82.4765 25.143 82.1245 25.143C81.5011 25.143 81.1895 25.044 81.1895 24.846V23.603H81.7615C82.0108 23.603 82.2638 23.559 82.5205 23.471C82.7771 23.383 83.0265 23.2143 83.2685 22.965C83.5178 22.7157 83.7561 22.3673 83.9835 21.92C84.2108 21.4653 84.4161 20.8787 84.5995 20.16C84.7901 19.434 84.9515 18.5577 85.0835 17.531C85.2228 16.497 85.3291 15.2723 85.4025 13.857H92.5085V25ZM100.307 13.681C101.121 13.681 101.854 13.8167 102.507 14.088C103.159 14.3593 103.717 14.7443 104.179 15.243C104.641 15.7417 104.993 16.3467 105.235 17.058C105.484 17.762 105.609 18.5503 105.609 19.423C105.609 20.303 105.484 21.095 105.235 21.799C104.993 22.503 104.641 23.1043 104.179 23.603C103.717 24.1017 103.159 24.4867 102.507 24.758C101.854 25.022 101.121 25.154 100.307 25.154C99.4853 25.154 98.7446 25.022 98.0846 24.758C97.4319 24.4867 96.8746 24.1017 96.4126 23.603C95.9506 23.1043 95.5949 22.503 95.3456 21.799C95.1036 21.095 94.9826 20.303 94.9826 19.423C94.9826 18.5503 95.1036 17.762 95.3456 17.058C95.5949 16.3467 95.9506 15.7417 96.4126 15.243C96.8746 14.7443 97.4319 14.3593 98.0846 14.088C98.7446 13.8167 99.4853 13.681 100.307 13.681ZM100.307 23.625C101.407 23.625 102.228 23.2583 102.771 22.525C103.313 21.7843 103.585 20.754 103.585 19.434C103.585 18.1067 103.313 17.0727 102.771 16.332C102.228 15.5913 101.407 15.221 100.307 15.221C99.7493 15.221 99.2616 15.3163 98.8436 15.507C98.4329 15.6977 98.0883 15.9727 97.8096 16.332C97.5383 16.6913 97.3329 17.135 97.1936 17.663C97.0616 18.1837 96.9956 18.774 96.9956 19.434C96.9956 20.754 97.2669 21.7843 97.8096 22.525C98.3596 23.2583 99.1919 23.625 100.307 23.625ZM112.371 23.625C113.104 23.625 113.684 23.4563 114.109 23.119C114.534 22.7743 114.747 22.305 114.747 21.711C114.747 21.447 114.707 21.2087 114.626 20.996C114.545 20.776 114.413 20.5853 114.23 20.424C114.047 20.2627 113.801 20.138 113.493 20.05C113.192 19.962 112.822 19.918 112.382 19.918H109.973V23.625H112.371ZM109.973 15.177V18.675H112.118C112.441 18.675 112.738 18.631 113.009 18.543C113.288 18.4477 113.526 18.3193 113.724 18.158C113.922 17.9893 114.076 17.7913 114.186 17.564C114.296 17.3293 114.351 17.0727 114.351 16.794C114.351 16.5887 114.314 16.3907 114.241 16.2C114.168 16.002 114.043 15.8297 113.867 15.683C113.691 15.529 113.46 15.408 113.174 15.32C112.888 15.2247 112.536 15.177 112.118 15.177H109.973ZM112.173 13.857C112.862 13.857 113.453 13.9267 113.944 14.066C114.435 14.2053 114.839 14.396 115.154 14.638C115.469 14.8727 115.7 15.1513 115.847 15.474C115.994 15.7967 116.067 16.1413 116.067 16.508C116.067 16.75 116.034 17.003 115.968 17.267C115.902 17.531 115.785 17.784 115.616 18.026C115.455 18.268 115.231 18.488 114.945 18.686C114.666 18.8767 114.314 19.027 113.889 19.137C114.74 19.2837 115.396 19.5807 115.858 20.028C116.32 20.468 116.551 21.051 116.551 21.777C116.551 22.3197 116.441 22.7927 116.221 23.196C116.008 23.592 115.711 23.9257 115.33 24.197C114.956 24.4683 114.516 24.67 114.01 24.802C113.504 24.934 112.961 25 112.382 25H108.092V13.857H112.173ZM123.285 23.57C123.681 23.57 124.022 23.5223 124.308 23.427C124.601 23.3243 124.843 23.185 125.034 23.009C125.225 22.8257 125.368 22.613 125.463 22.371C125.558 22.129 125.606 21.865 125.606 21.579C125.606 21.315 125.566 21.0693 125.485 20.842C125.404 20.6073 125.269 20.402 125.078 20.226C124.895 20.05 124.653 19.9107 124.352 19.808C124.051 19.7053 123.685 19.654 123.252 19.654H120.887V23.57H123.285ZM123.252 18.224C124.022 18.224 124.667 18.3157 125.188 18.499C125.716 18.6823 126.138 18.928 126.453 19.236C126.776 19.544 127.007 19.8997 127.146 20.303C127.285 20.7063 127.355 21.1243 127.355 21.557C127.355 22.0557 127.267 22.5177 127.091 22.943C126.915 23.361 126.655 23.724 126.31 24.032C125.965 24.3327 125.54 24.571 125.034 24.747C124.528 24.9157 123.945 25 123.285 25H119.006V13.857H120.887V18.224H123.252ZM136.991 18.213C136.991 17.7583 136.925 17.344 136.793 16.97C136.669 16.5887 136.482 16.2623 136.232 15.991C135.99 15.7123 135.693 15.4997 135.341 15.353C134.989 15.199 134.59 15.122 134.142 15.122C133.204 15.122 132.459 15.397 131.909 15.947C131.367 16.4897 131.029 17.245 130.897 18.213H136.991ZM138.575 23.438C138.333 23.7313 138.044 23.988 137.706 24.208C137.369 24.4207 137.006 24.5967 136.617 24.736C136.236 24.8753 135.84 24.978 135.429 25.044C135.019 25.1173 134.612 25.154 134.208 25.154C133.438 25.154 132.727 25.0257 132.074 24.769C131.429 24.505 130.868 24.1237 130.391 23.625C129.922 23.119 129.555 22.4957 129.291 21.755C129.027 21.0143 128.895 20.1637 128.895 19.203C128.895 18.4257 129.013 17.6997 129.247 17.025C129.489 16.3503 129.834 15.7673 130.281 15.276C130.729 14.7773 131.275 14.3887 131.92 14.11C132.566 13.824 133.292 13.681 134.098 13.681C134.766 13.681 135.382 13.7947 135.946 14.022C136.518 14.242 137.01 14.5647 137.42 14.99C137.838 15.408 138.165 15.9287 138.399 16.552C138.634 17.168 138.751 17.872 138.751 18.664C138.751 18.972 138.718 19.1773 138.652 19.28C138.586 19.3827 138.462 19.434 138.278 19.434H130.831C130.853 20.138 130.949 20.7503 131.117 21.271C131.293 21.7917 131.535 22.228 131.843 22.58C132.151 22.9247 132.518 23.185 132.943 23.361C133.369 23.5297 133.845 23.614 134.373 23.614C134.865 23.614 135.286 23.559 135.638 23.449C135.998 23.3317 136.306 23.207 136.562 23.075C136.819 22.943 137.032 22.822 137.2 22.712C137.376 22.5947 137.527 22.536 137.651 22.536C137.813 22.536 137.937 22.5983 138.025 22.723L138.575 23.438ZM145.435 23.625C146.169 23.625 146.748 23.4563 147.173 23.119C147.599 22.7743 147.811 22.305 147.811 21.711C147.811 21.447 147.771 21.2087 147.69 20.996C147.61 20.776 147.478 20.5853 147.294 20.424C147.111 20.2627 146.865 20.138 146.557 20.05C146.257 19.962 145.886 19.918 145.446 19.918H143.037V23.625H145.435ZM143.037 15.177V18.675H145.182C145.505 18.675 145.802 18.631 146.073 18.543C146.352 18.4477 146.59 18.3193 146.788 18.158C146.986 17.9893 147.14 17.7913 147.25 17.564C147.36 17.3293 147.415 17.0727 147.415 16.794C147.415 16.5887 147.379 16.3907 147.305 16.2C147.232 16.002 147.107 15.8297 146.931 15.683C146.755 15.529 146.524 15.408 146.238 15.32C145.952 15.2247 145.6 15.177 145.182 15.177H143.037ZM145.237 13.857C145.927 13.857 146.517 13.9267 147.008 14.066C147.5 14.2053 147.903 14.396 148.218 14.638C148.534 14.8727 148.765 15.1513 148.911 15.474C149.058 15.7967 149.131 16.1413 149.131 16.508C149.131 16.75 149.098 17.003 149.032 17.267C148.966 17.531 148.849 17.784 148.68 18.026C148.519 18.268 148.295 18.488 148.009 18.686C147.731 18.8767 147.379 19.027 146.953 19.137C147.804 19.2837 148.46 19.5807 148.922 20.028C149.384 20.468 149.615 21.051 149.615 21.777C149.615 22.3197 149.505 22.7927 149.285 23.196C149.073 23.592 148.776 23.9257 148.394 24.197C148.02 24.4683 147.58 24.67 147.074 24.802C146.568 24.934 146.026 25 145.446 25H141.156V13.857H145.237ZM158.11 19.984C157.208 20.0133 156.438 20.0867 155.8 20.204C155.169 20.314 154.652 20.4607 154.249 20.644C153.853 20.8273 153.563 21.0437 153.38 21.293C153.204 21.5423 153.116 21.821 153.116 22.129C153.116 22.4223 153.163 22.6753 153.259 22.888C153.354 23.1007 153.482 23.2767 153.644 23.416C153.812 23.548 154.007 23.647 154.227 23.713C154.454 23.7717 154.696 23.801 154.953 23.801C155.297 23.801 155.613 23.768 155.899 23.702C156.185 23.6287 156.452 23.526 156.702 23.394C156.958 23.262 157.2 23.1043 157.428 22.921C157.662 22.7377 157.89 22.5287 158.11 22.294V19.984ZM151.785 15.43C152.401 14.836 153.064 14.3923 153.776 14.099C154.487 13.8057 155.275 13.659 156.141 13.659C156.764 13.659 157.318 13.7617 157.802 13.967C158.286 14.1723 158.693 14.4583 159.023 14.825C159.353 15.1917 159.602 15.6353 159.771 16.156C159.939 16.6767 160.024 17.2487 160.024 17.872V25H159.155C158.964 25 158.817 24.9707 158.715 24.912C158.612 24.846 158.531 24.7213 158.473 24.538L158.253 23.482C157.959 23.7533 157.673 23.9953 157.395 24.208C157.116 24.4133 156.823 24.5893 156.515 24.736C156.207 24.8753 155.877 24.9817 155.525 25.055C155.18 25.1357 154.795 25.176 154.37 25.176C153.937 25.176 153.53 25.1173 153.149 25C152.767 24.8753 152.434 24.692 152.148 24.45C151.869 24.208 151.645 23.9037 151.477 23.537C151.315 23.163 151.235 22.723 151.235 22.217C151.235 21.777 151.356 21.3553 151.598 20.952C151.84 20.5413 152.232 20.1783 152.775 19.863C153.317 19.5477 154.025 19.291 154.898 19.093C155.77 18.8877 156.841 18.7703 158.11 18.741V17.872C158.11 17.0067 157.923 16.354 157.549 15.914C157.175 15.4667 156.628 15.243 155.91 15.243C155.426 15.243 155.019 15.3053 154.689 15.43C154.366 15.5473 154.084 15.683 153.842 15.837C153.607 15.9837 153.402 16.1193 153.226 16.244C153.057 16.3613 152.888 16.42 152.72 16.42C152.588 16.42 152.474 16.387 152.379 16.321C152.283 16.2477 152.203 16.1597 152.137 16.057L151.785 15.43Z" fill="black"/>
</svg>
