<svg width="154" height="24" viewBox="0 0 154 24" fill="none" xmlns="http://www.w3.org/2000/svg">
<g clip-path="url(#clip0_1004_440)">
<path d="M21 11H6.83L10.41 7.41L9 6L3 12L9 18L10.41 16.59L6.83 13H21V11Z" fill="#2D2D2D"/>
</g>
<path d="M45.104 17H43.152C42.9493 17 42.7787 16.9467 42.64 16.84C42.5067 16.7333 42.3813 16.576 42.264 16.368L39.8 12.48C39.736 12.368 39.6667 12.2773 39.592 12.208C39.5227 12.1333 39.4453 12.0747 39.36 12.032C39.28 11.984 39.1867 11.952 39.08 11.936C38.9787 11.92 38.8613 11.912 38.728 11.912H37.44V17H35.288V5.432H37.44V10.28H38.528C38.7467 10.28 38.936 10.2427 39.096 10.168C39.256 10.0933 39.4053 9.95467 39.544 9.752L42.08 6.008C42.1867 5.83733 42.312 5.69867 42.456 5.592C42.6 5.48533 42.7733 5.432 42.976 5.432H44.816L41.672 10.072C41.5387 10.2747 41.384 10.4427 41.208 10.576C41.032 10.7093 40.8373 10.8133 40.624 10.888C40.944 10.9787 41.2133 11.1227 41.432 11.32C41.656 11.512 41.8693 11.7787 42.072 12.12L45.104 17ZM55.8873 10.528C55.8286 10.6027 55.7699 10.6613 55.7113 10.704C55.6579 10.7467 55.5779 10.768 55.4713 10.768C55.3699 10.768 55.2713 10.7387 55.1753 10.68C55.0793 10.616 54.9646 10.5467 54.8313 10.472C54.6979 10.392 54.5379 10.3227 54.3513 10.264C54.1699 10.2 53.9433 10.168 53.6713 10.168C53.3246 10.168 53.0206 10.232 52.7593 10.36C52.4979 10.4827 52.2793 10.6613 52.1033 10.896C51.9326 11.1307 51.8046 11.416 51.7193 11.752C51.6339 12.0827 51.5913 12.4587 51.5913 12.88C51.5913 13.3173 51.6366 13.7067 51.7273 14.048C51.8233 14.3893 51.9593 14.6773 52.1353 14.912C52.3113 15.1413 52.5246 15.3173 52.7753 15.44C53.0259 15.5573 53.3086 15.616 53.6233 15.616C53.9379 15.616 54.1913 15.5787 54.3833 15.504C54.5806 15.424 54.7459 15.3387 54.8793 15.248C55.0126 15.152 55.1273 15.0667 55.2233 14.992C55.3246 14.912 55.4366 14.872 55.5593 14.872C55.7193 14.872 55.8393 14.9333 55.9193 15.056L56.4873 15.776C56.2686 16.032 56.0313 16.248 55.7753 16.424C55.5193 16.5947 55.2526 16.7333 54.9753 16.84C54.7033 16.9413 54.4206 17.0133 54.1273 17.056C53.8393 17.0987 53.5513 17.12 53.2633 17.12C52.7566 17.12 52.2793 17.0267 51.8313 16.84C51.3833 16.648 50.9913 16.3707 50.6553 16.008C50.3193 15.6453 50.0526 15.2027 49.8553 14.68C49.6633 14.152 49.5673 13.552 49.5673 12.88C49.5673 12.2773 49.6526 11.72 49.8233 11.208C49.9993 10.6907 50.2553 10.2453 50.5913 9.872C50.9273 9.49333 51.3433 9.19733 51.8393 8.984C52.3353 8.77067 52.9059 8.664 53.5512 8.664C54.1646 8.664 54.7006 8.76267 55.1593 8.96C55.6233 9.15733 56.0393 9.44 56.4073 9.808L55.8873 10.528ZM64.878 17H62.902V10.256H59.702V17H57.726V8.792H64.878V17ZM74.2114 8.792V17H72.2354V12.208C72.2354 12.0853 72.2407 11.952 72.2514 11.808C72.2674 11.6587 72.286 11.5093 72.3074 11.36C72.2007 11.6053 72.0834 11.8213 71.9554 12.008C71.9447 12.0187 71.8914 12.0933 71.7954 12.232C71.6994 12.3653 71.574 12.5387 71.4194 12.752C71.27 12.9653 71.0994 13.208 70.9074 13.48C70.7154 13.7467 70.5207 14.0187 70.3234 14.296C69.8594 14.952 69.334 15.6933 68.7474 16.52C68.6727 16.632 68.574 16.7413 68.4514 16.848C68.334 16.9547 68.198 17.008 68.0434 17.008H66.8354V8.8H68.8114V13.592C68.8114 13.7147 68.8034 13.8507 68.7874 14C68.7767 14.144 68.7607 14.2907 68.7394 14.44C68.8567 14.1787 68.974 13.9627 69.0914 13.792C69.0967 13.7813 69.1474 13.7093 69.2434 13.576C69.3394 13.4427 69.462 13.2693 69.6114 13.056C69.766 12.8427 69.9394 12.6027 70.1314 12.336C70.3234 12.064 70.518 11.7867 70.7154 11.504C71.1794 10.848 71.7074 10.1067 72.2994 9.28C72.374 9.16267 72.4727 9.05333 72.5954 8.952C72.718 8.84533 72.8567 8.792 73.0114 8.792H74.2114ZM82.0435 10.528C81.9848 10.6027 81.9262 10.6613 81.8675 10.704C81.8142 10.7467 81.7342 10.768 81.6275 10.768C81.5262 10.768 81.4275 10.7387 81.3315 10.68C81.2355 10.616 81.1208 10.5467 80.9875 10.472C80.8542 10.392 80.6942 10.3227 80.5075 10.264C80.3262 10.2 80.0995 10.168 79.8275 10.168C79.4808 10.168 79.1768 10.232 78.9155 10.36C78.6542 10.4827 78.4355 10.6613 78.2595 10.896C78.0888 11.1307 77.9608 11.416 77.8755 11.752C77.7902 12.0827 77.7475 12.4587 77.7475 12.88C77.7475 13.3173 77.7928 13.7067 77.8835 14.048C77.9795 14.3893 78.1155 14.6773 78.2915 14.912C78.4675 15.1413 78.6808 15.3173 78.9315 15.44C79.1822 15.5573 79.4648 15.616 79.7795 15.616C80.0942 15.616 80.3475 15.5787 80.5395 15.504C80.7368 15.424 80.9022 15.3387 81.0355 15.248C81.1688 15.152 81.2835 15.0667 81.3795 14.992C81.4808 14.912 81.5928 14.872 81.7155 14.872C81.8755 14.872 81.9955 14.9333 82.0755 15.056L82.6435 15.776C82.4248 16.032 82.1875 16.248 81.9315 16.424C81.6755 16.5947 81.4088 16.7333 81.1315 16.84C80.8595 16.9413 80.5768 17.0133 80.2835 17.056C79.9955 17.0987 79.7075 17.12 79.4195 17.12C78.9128 17.12 78.4355 17.0267 77.9875 16.84C77.5395 16.648 77.1475 16.3707 76.8115 16.008C76.4755 15.6453 76.2088 15.2027 76.0115 14.68C75.8195 14.152 75.7235 13.552 75.7235 12.88C75.7235 12.2773 75.8088 11.72 75.9795 11.208C76.1555 10.6907 76.4115 10.2453 76.7475 9.872C77.0835 9.49333 77.4995 9.19733 77.9955 8.984C78.4915 8.77067 79.0622 8.664 79.7075 8.664C80.3208 8.664 80.8568 8.76267 81.3155 8.96C81.7795 9.15733 82.1955 9.44 82.5635 9.808L82.0435 10.528ZM88.7863 9.312C88.8823 9.15733 89.0129 9.032 89.1783 8.936C89.3436 8.84 89.5196 8.792 89.7063 8.792H91.2583L89.3463 11.84C89.2129 12.0533 89.0769 12.2267 88.9383 12.36C88.7996 12.488 88.6316 12.5893 88.4343 12.664C88.7009 12.744 88.9196 12.864 89.0903 13.024C89.2609 13.1787 89.4156 13.376 89.5543 13.616L91.4743 17H90.1063C89.7596 17 89.4903 16.9413 89.2983 16.824C89.1063 16.7067 88.9436 16.5387 88.8103 16.32L87.6023 14.048C87.4956 13.8507 87.3569 13.704 87.1863 13.608C87.0209 13.512 86.8263 13.464 86.6023 13.464H85.8583V17H83.8823V8.792H85.8583V12.176H86.4983C86.7223 12.176 86.9009 12.136 87.0343 12.056C87.1729 11.9707 87.2903 11.8427 87.3863 11.672L88.7863 9.312ZM100.026 8.792L95.5538 19.256C95.4951 19.3947 95.4178 19.4987 95.3218 19.568C95.2311 19.6427 95.0898 19.68 94.8978 19.68H93.4258L94.9618 16.384L91.6418 8.792H93.3778C93.5324 8.792 93.6524 8.82933 93.7378 8.904C93.8284 8.97867 93.8951 9.064 93.9378 9.16L95.6818 13.416C95.7404 13.56 95.7884 13.704 95.8258 13.848C95.8684 13.992 95.9084 14.1387 95.9458 14.288C95.9938 14.1387 96.0418 13.992 96.0898 13.848C96.1378 13.6987 96.1911 13.552 96.2498 13.408L97.8978 9.16C97.9404 9.05333 98.0098 8.96533 98.1058 8.896C98.2071 8.82667 98.3191 8.792 98.4418 8.792H100.026ZM110.778 10.528C110.719 10.6027 110.661 10.6613 110.602 10.704C110.549 10.7467 110.469 10.768 110.362 10.768C110.261 10.768 110.162 10.7387 110.066 10.68C109.97 10.616 109.855 10.5467 109.722 10.472C109.589 10.392 109.429 10.3227 109.242 10.264C109.061 10.2 108.834 10.168 108.562 10.168C108.215 10.168 107.911 10.232 107.65 10.36C107.389 10.4827 107.17 10.6613 106.994 10.896C106.823 11.1307 106.695 11.416 106.61 11.752C106.525 12.0827 106.482 12.4587 106.482 12.88C106.482 13.3173 106.527 13.7067 106.618 14.048C106.714 14.3893 106.85 14.6773 107.026 14.912C107.202 15.1413 107.415 15.3173 107.666 15.44C107.917 15.5573 108.199 15.616 108.514 15.616C108.829 15.616 109.082 15.5787 109.274 15.504C109.471 15.424 109.637 15.3387 109.77 15.248C109.903 15.152 110.018 15.0667 110.114 14.992C110.215 14.912 110.327 14.872 110.45 14.872C110.61 14.872 110.73 14.9333 110.81 15.056L111.378 15.776C111.159 16.032 110.922 16.248 110.666 16.424C110.41 16.5947 110.143 16.7333 109.866 16.84C109.594 16.9413 109.311 17.0133 109.018 17.056C108.73 17.0987 108.442 17.12 108.154 17.12C107.647 17.12 107.17 17.0267 106.722 16.84C106.274 16.648 105.882 16.3707 105.546 16.008C105.21 15.6453 104.943 15.2027 104.746 14.68C104.554 14.152 104.458 13.552 104.458 12.88C104.458 12.2773 104.543 11.72 104.714 11.208C104.89 10.6907 105.146 10.2453 105.482 9.872C105.818 9.49333 106.234 9.19733 106.73 8.984C107.226 8.77067 107.797 8.664 108.442 8.664C109.055 8.664 109.591 8.76267 110.05 8.96C110.514 9.15733 110.93 9.44 111.298 9.808L110.778 10.528ZM119.657 10.256H116.729V17H114.753V10.256H111.833V8.792H119.657V10.256ZM125.109 13.496C124.538 13.5227 124.058 13.5733 123.669 13.648C123.28 13.7173 122.968 13.808 122.733 13.92C122.498 14.032 122.33 14.1627 122.229 14.312C122.128 14.4613 122.077 14.624 122.077 14.8C122.077 15.1467 122.178 15.3947 122.381 15.544C122.589 15.6933 122.858 15.768 123.189 15.768C123.594 15.768 123.944 15.696 124.237 15.552C124.536 15.4027 124.826 15.1787 125.109 14.88V13.496ZM120.581 9.936C121.525 9.072 122.661 8.64 123.989 8.64C124.469 8.64 124.898 8.72 125.277 8.88C125.656 9.03467 125.976 9.25333 126.237 9.536C126.498 9.81333 126.696 10.1467 126.829 10.536C126.968 10.9253 127.037 11.352 127.037 11.816V17H126.141C125.954 17 125.81 16.9733 125.709 16.92C125.608 16.8613 125.528 16.7467 125.469 16.576L125.293 15.984C125.085 16.1707 124.882 16.336 124.685 16.48C124.488 16.6187 124.282 16.736 124.069 16.832C123.856 16.928 123.626 17 123.381 17.048C123.141 17.1013 122.874 17.128 122.581 17.128C122.234 17.128 121.914 17.0827 121.621 16.992C121.328 16.896 121.074 16.7547 120.861 16.568C120.648 16.3813 120.482 16.1493 120.365 15.872C120.248 15.5947 120.189 15.272 120.189 14.904C120.189 14.696 120.224 14.4907 120.293 14.288C120.362 14.08 120.474 13.8827 120.629 13.696C120.789 13.5093 120.994 13.3333 121.245 13.168C121.496 13.0027 121.802 12.8587 122.165 12.736C122.533 12.6133 122.96 12.5147 123.445 12.44C123.93 12.36 124.485 12.312 125.109 12.296V11.816C125.109 11.2667 124.992 10.8613 124.757 10.6C124.522 10.3333 124.184 10.2 123.741 10.2C123.421 10.2 123.154 10.2373 122.941 10.312C122.733 10.3867 122.549 10.472 122.389 10.568C122.229 10.6587 122.082 10.7413 121.949 10.816C121.821 10.8907 121.677 10.928 121.517 10.928C121.378 10.928 121.261 10.8933 121.165 10.824C121.069 10.7493 120.992 10.664 120.933 10.568L120.581 9.936ZM135.797 10.256H132.869V17H130.893V10.256H127.973V8.792H135.797V10.256ZM142.014 11.952C142.014 11.696 141.977 11.456 141.902 11.232C141.833 11.0027 141.726 10.8027 141.582 10.632C141.438 10.4613 141.254 10.328 141.03 10.232C140.811 10.1307 140.555 10.08 140.262 10.08C139.691 10.08 139.241 10.2427 138.91 10.568C138.585 10.8933 138.377 11.3547 138.286 11.952H142.014ZM138.246 13.144C138.278 13.5653 138.353 13.9307 138.47 14.24C138.587 14.544 138.742 14.7973 138.934 15C139.126 15.1973 139.353 15.3467 139.614 15.448C139.881 15.544 140.174 15.592 140.494 15.592C140.814 15.592 141.089 15.5547 141.318 15.48C141.553 15.4053 141.755 15.3227 141.926 15.232C142.102 15.1413 142.254 15.0587 142.382 14.984C142.515 14.9093 142.643 14.872 142.766 14.872C142.931 14.872 143.054 14.9333 143.134 15.056L143.702 15.776C143.483 16.032 143.238 16.248 142.966 16.424C142.694 16.5947 142.409 16.7333 142.11 16.84C141.817 16.9413 141.515 17.0133 141.206 17.056C140.902 17.0987 140.606 17.12 140.318 17.12C139.747 17.12 139.217 17.0267 138.726 16.84C138.235 16.648 137.809 16.368 137.446 16C137.083 15.6267 136.798 15.168 136.59 14.624C136.382 14.0747 136.278 13.44 136.278 12.72C136.278 12.16 136.369 11.6347 136.55 11.144C136.731 10.648 136.99 10.2187 137.326 9.856C137.667 9.488 138.081 9.19733 138.566 8.984C139.057 8.77067 139.609 8.664 140.222 8.664C140.739 8.664 141.217 8.74667 141.654 8.912C142.091 9.07733 142.467 9.32 142.782 9.64C143.097 9.95467 143.342 10.344 143.518 10.808C143.699 11.2667 143.79 11.792 143.79 12.384C143.79 12.6827 143.758 12.8853 143.694 12.992C143.63 13.0933 143.507 13.144 143.326 13.144H138.246ZM152.649 8.792V17H150.673V12.208C150.673 12.0853 150.678 11.952 150.689 11.808C150.705 11.6587 150.724 11.5093 150.745 11.36C150.638 11.6053 150.521 11.8213 150.393 12.008C150.382 12.0187 150.329 12.0933 150.233 12.232C150.137 12.3653 150.012 12.5387 149.857 12.752C149.708 12.9653 149.537 13.208 149.345 13.48C149.153 13.7467 148.958 14.0187 148.761 14.296C148.297 14.952 147.772 15.6933 147.185 16.52C147.11 16.632 147.012 16.7413 146.889 16.848C146.772 16.9547 146.636 17.008 146.481 17.008H145.273V8.8H147.249V13.592C147.249 13.7147 147.241 13.8507 147.225 14C147.214 14.144 147.198 14.2907 147.177 14.44C147.294 14.1787 147.412 13.9627 147.529 13.792C147.534 13.7813 147.585 13.7093 147.681 13.576C147.777 13.4427 147.9 13.2693 148.049 13.056C148.204 12.8427 148.377 12.6027 148.569 12.336C148.761 12.064 148.956 11.7867 149.153 11.504C149.617 10.848 150.145 10.1067 150.737 9.28C150.812 9.16267 150.91 9.05333 151.033 8.952C151.156 8.84533 151.294 8.792 151.449 8.792H152.649ZM149.073 6.712C149.27 6.712 149.436 6.69067 149.569 6.648C149.702 6.60533 149.809 6.536 149.889 6.44C149.969 6.33867 150.025 6.20533 150.057 6.04C150.089 5.87467 150.105 5.672 150.105 5.432H151.273C151.412 5.432 151.513 5.49067 151.577 5.608C151.646 5.72 151.681 5.84533 151.681 5.984C151.681 6.256 151.62 6.504 151.497 6.728C151.374 6.94667 151.198 7.13333 150.969 7.288C150.74 7.43733 150.465 7.55467 150.145 7.64C149.825 7.72 149.468 7.76 149.073 7.76C148.678 7.76 148.321 7.72 148.001 7.64C147.681 7.55467 147.406 7.43733 147.177 7.288C146.948 7.13333 146.772 6.94667 146.649 6.728C146.526 6.504 146.465 6.256 146.465 5.984C146.465 5.84533 146.497 5.72 146.561 5.608C146.63 5.49067 146.734 5.432 146.873 5.432H148.041C148.041 5.672 148.057 5.87467 148.089 6.04C148.121 6.20533 148.177 6.33867 148.257 6.44C148.337 6.536 148.441 6.60533 148.569 6.648C148.702 6.69067 148.87 6.712 149.073 6.712Z" fill="#2D2D2D"/>
<defs>
<clipPath id="clip0_1004_440">
<rect width="24" height="24" fill="white"/>
</clipPath>
</defs>
</svg>
